<?xml version="1.0" encoding="UTF-8" standalone="no"?><!DOCTYPE svg PUBLIC "-//W3C//DTD SVG 1.1//EN" "http://www.w3.org/Graphics/SVG/1.1/DTD/svg11.dtd"><svg width="100%" height="100%" viewBox="0 0 3887 967" version="1.1" xmlns="http://www.w3.org/2000/svg" xmlns:xlink="http://www.w3.org/1999/xlink" xml:space="preserve" xmlns:serif="http://www.serif.com/" style="fill-rule:evenodd;clip-rule:evenodd;stroke-linejoin:round;stroke-miterlimit:2;"><g><path d="M339.276,807.723l0,-746.536l283.467,0c67.801,0 128.75,14.786 182.847,44.359c54.097,29.573 97.014,72.129 128.75,127.668c31.737,55.539 47.605,122.619 47.605,201.24c0,77.899 -15.868,144.799 -47.605,200.699c-31.737,55.9 -74.654,98.636 -128.75,128.209c-54.097,29.573 -115.046,44.359 -182.847,44.359l-283.467,0Zm173.11,-151.471l94.128,0c39.671,0 74.473,-8.115 104.407,-24.344c29.934,-16.229 53.195,-40.933 69.785,-74.113c16.59,-33.179 24.885,-74.293 24.885,-123.341c0,-49.769 -8.295,-91.063 -24.885,-123.882c-16.59,-32.819 -39.851,-57.343 -69.785,-73.572c-29.934,-16.229 -64.736,-24.344 -104.407,-24.344l-94.128,0l0,443.594Z" style="fill:url(#_Radial1);fill-rule:nonzero;"/><path d="M977.272,243.873l173.11,0l106.03,415.463l-41.114,-1.082l119.013,-414.381l134.16,0l121.177,414.381l-40.032,1.082l102.784,-415.463l168.782,0l-177.437,568.016l-142.816,0l-126.587,-380.841l49.769,0l-126.587,380.841l-142.816,0l-177.437,-568.016Z" style="fill:url(#_Radial2);fill-rule:nonzero;"/><path d="M1839.022,641.749c0,-35.343 9.557,-66.719 28.671,-94.128c19.114,-27.409 48.326,-49.408 87.637,-65.998c39.31,-16.59 88.899,-25.966 148.766,-28.13l61.67,-2.164l0,-4.328c0,-31.737 -8.836,-56.621 -26.507,-74.654c-17.672,-18.032 -45.261,-27.048 -82.768,-27.048c-30.294,-0 -58.605,4.147 -84.932,12.442c-26.327,8.295 -49.949,17.491 -70.867,27.589l-43.277,-127.668c27.409,-12.262 60.588,-23.262 99.538,-32.999c38.95,-9.737 80.424,-14.606 124.423,-14.606c49.048,0 91.965,8.655 128.75,25.966c36.786,17.311 65.637,42.917 86.555,76.817c20.917,33.901 31.376,75.736 31.376,125.505l0,217.469c0,15.147 0.541,28.671 1.623,40.573c1.082,11.901 3.065,25.786 5.951,41.655l8.655,53.015l-157.963,0l-12.983,-70.326c-18.032,24.524 -41.655,44.54 -70.867,60.047c-29.212,15.508 -61.129,23.262 -95.751,23.262c-30.294,0 -58.064,-6.852 -83.309,-20.557c-25.245,-13.705 -45.622,-32.638 -61.129,-56.802c-15.508,-24.163 -23.262,-52.474 -23.262,-84.932Zm146.061,-18.393c0,18.754 6.131,33.36 18.393,43.818c12.262,10.459 27.77,15.688 46.523,15.688c20.917,0 41.474,-4.508 61.67,-13.524c20.196,-9.016 38.228,-21.458 54.097,-37.327l0,-87.637l-50.851,2.164c-32.458,1.443 -58.064,5.951 -76.817,13.524c-18.754,7.574 -32.278,16.77 -40.573,27.589c-8.295,10.819 -12.442,22.721 -12.442,35.704Z" style="fill:url(#_Radial3);fill-rule:nonzero;"/><path d="M2372.437,795.223l0,-773.584l162.29,-21.639l0,296.45c21.639,-25.245 46.343,-45.261 74.113,-60.047c27.77,-14.786 58.966,-22.18 93.587,-22.18c33.901,0 65.998,8.475 96.292,25.425c30.294,16.95 54.998,42.196 74.113,75.736c19.114,33.54 28.671,75.916 28.671,127.127l0,352.711l-162.29,0l0,-327.827c0,-36.065 -9.016,-62.392 -27.048,-78.981c-18.032,-16.59 -41.114,-24.885 -69.244,-24.885c-18.032,0 -36.605,3.426 -55.72,10.278c-19.114,6.852 -36.605,17.131 -52.474,30.835l0,390.579l-162.29,0Z" style="fill:url(#_Radial4);fill-rule:nonzero;"/><path d="M2914.302,368.296l0,-124.423l97.374,0l0,-6.492c0,-43.277 8.295,-81.326 24.885,-114.144c16.59,-32.819 40.573,-58.244 71.949,-76.276c31.376,-18.032 68.703,-27.048 111.98,-27.048c17.311,0 36.605,1.803 57.884,5.41c21.278,3.606 40.933,8.655 58.966,15.147l-17.311,122.259c-11.541,-3.606 -23.262,-6.311 -35.163,-8.115c-11.901,-1.803 -23.262,-2.705 -34.081,-2.705c-26.688,0 -46.163,7.393 -58.425,22.18c-12.262,14.786 -18.393,35.163 -18.393,61.129l0,8.655l147.143,0l0,124.423l-147.143,0l0,443.594l-162.29,0l0,-443.594l-97.374,0Z" style="fill:url(#_Radial5);fill-rule:nonzero;"/><path d="M3312.777,185.54l177.437,0l112.521,352.711l110.357,-352.711l173.11,0l-220.715,568.016c-18.032,46.163 -37.327,85.112 -57.884,116.849c-20.557,31.737 -45.081,55.72 -73.572,71.949c-28.491,16.229 -64.015,24.344 -106.571,24.344c-15.147,0 -31.196,-1.623 -48.146,-4.869c-16.95,-3.246 -3365.611,-7.393 -3379.316,-12.442l17.311,-130.914c10.098,2.885 3353.169,5.229 3362.546,7.033c9.377,1.803 18.754,2.705 28.13,2.705c25.966,0 47.605,-6.852 64.916,-20.557c17.311,-13.705 30.655,-32.458 40.032,-56.261l9.737,-24.885l-209.896,-540.968Z" style="fill:url(#_Radial6);fill-rule:nonzero;"/></g><defs><radialGradient id="_Radial1" cx="0" cy="0" r="1" gradientUnits="userSpaceOnUse" gradientTransform="matrix(3886.20259,0,0,966.697614,8.333333,537.515474)"><stop offset="0" style="stop-color:#b99aff;stop-opacity:1"/><stop offset="0.57" style="stop-color:#aa84ff;stop-opacity:1"/><stop offset="0.79" style="stop-color:#8a56ff;stop-opacity:1"/><stop offset="1" style="stop-color:#6b2aff;stop-opacity:1"/></radialGradient><radialGradient id="_Radial2" cx="0" cy="0" r="1" gradientUnits="userSpaceOnUse" gradientTransform="matrix(3886.20259,0,0,966.697614,-66.666667,541.68214)"><stop offset="0" style="stop-color:#b99aff;stop-opacity:1"/><stop offset="0.57" style="stop-color:#aa84ff;stop-opacity:1"/><stop offset="0.79" style="stop-color:#8a56ff;stop-opacity:1"/><stop offset="1" style="stop-color:#6b2aff;stop-opacity:1"/></radialGradient><radialGradient id="_Radial3" cx="0" cy="0" r="1" gradientUnits="userSpaceOnUse" gradientTransform="matrix(3886.20259,0,0,966.697614,-108.333333,520.848807)"><stop offset="0" style="stop-color:#b99aff;stop-opacity:1"/><stop offset="0.57" style="stop-color:#aa84ff;stop-opacity:1"/><stop offset="0.79" style="stop-color:#8a56ff;stop-opacity:1"/><stop offset="1" style="stop-color:#6b2aff;stop-opacity:1"/></radialGradient><radialGradient id="_Radial4" cx="0" cy="0" r="1" gradientUnits="userSpaceOnUse" gradientTransform="matrix(3886.20259,0,0,966.697614,-220.833333,525.015474)"><stop offset="0" style="stop-color:#b99aff;stop-opacity:1"/><stop offset="0.57" style="stop-color:#aa84ff;stop-opacity:1"/><stop offset="0.79" style="stop-color:#8a56ff;stop-opacity:1"/><stop offset="1" style="stop-color:#6b2aff;stop-opacity:1"/></radialGradient><radialGradient id="_Radial5" cx="0" cy="0" r="1" gradientUnits="userSpaceOnUse" gradientTransform="matrix(3886.20259,0,0,966.697614,-300,541.68214)"><stop offset="0" style="stop-color:#b99aff;stop-opacity:1"/><stop offset="0.57" style="stop-color:#aa84ff;stop-opacity:1"/><stop offset="0.79" style="stop-color:#8a56ff;stop-opacity:1"/><stop offset="1" style="stop-color:#6b2aff;stop-opacity:1"/></radialGradient><radialGradient id="_Radial6" cx="0" cy="0" r="1" gradientUnits="userSpaceOnUse" gradientTransform="matrix(3886.20259,0,0,966.697614,-308.333333,483.348807)"><stop offset="0" style="stop-color:#b99aff;stop-opacity:1"/><stop offset="0.57" style="stop-color:#aa84ff;stop-opacity:1"/><stop offset="0.79" style="stop-color:#8a56ff;stop-opacity:1"/><stop offset="1" style="stop-color:#6b2aff;stop-opacity:1"/></radialGradient></defs></svg>