<?xml version="1.0" encoding="UTF-8" standalone="no"?>
<!DOCTYPE svg PUBLIC "-//W3C//DTD SVG 1.1//EN" "http://www.w3.org/Graphics/SVG/1.1/DTD/svg11.dtd">
<svg width="100%" height="100%" viewBox="0 0 1220 326" version="1.1" xmlns="http://www.w3.org/2000/svg" xmlns:xlink="http://www.w3.org/1999/xlink" xml:space="preserve" xmlns:serif="http://www.serif.com/" style="fill-rule:evenodd;clip-rule:evenodd;stroke-linejoin:round;stroke-miterlimit:2;">
    <g transform="matrix(1,0,0,1,-489.645235,-354.146503)">
        <g transform="matrix(1,0,0,1,163,-93)">
            <g transform="matrix(1,0,0,1,2,13)">
                <path d="M406.071,628L406.071,448.831L474.104,448.831C490.376,448.831 505.004,452.38 517.987,459.478C530.97,466.575 541.27,476.789 548.887,490.118C556.504,503.448 560.312,519.547 560.312,538.416C560.312,557.112 556.504,573.167 548.887,586.583C541.27,599.999 530.97,610.256 517.987,617.354C505.004,624.451 490.376,628 474.104,628L406.071,628ZM447.618,591.647L470.209,591.647C479.73,591.647 488.082,589.699 495.266,585.804C502.45,581.91 508.033,575.981 512.015,568.017C515.996,560.054 517.987,550.187 517.987,538.416C517.987,526.471 515.996,516.561 512.015,508.684C508.033,500.808 502.45,494.922 495.266,491.027C488.082,487.132 479.73,485.184 470.209,485.184L447.618,485.184L447.618,591.647Z" style="fill-rule:nonzero;"/>
            </g>
            <g transform="matrix(1,0,0,1,-16,14)">
                <path d="M577.19,491.676L618.737,491.676L644.184,591.387L634.317,591.128L662.88,491.676L695.078,491.676L724.161,591.128L714.553,591.387L739.221,491.676L779.729,491.676L737.144,628L702.868,628L672.487,536.598L684.432,536.598L654.051,628L619.775,628L577.19,491.676Z" style="fill-rule:nonzero;"/>
            </g>
            <g transform="matrix(1,0,0,1,-26,9)">
                <path d="M794.01,592.166C794.01,583.684 796.304,576.154 800.892,569.575C805.479,562.997 812.49,557.717 821.924,553.736C831.359,549.754 843.26,547.504 857.628,546.985L872.429,546.465L872.429,545.427C872.429,537.81 870.309,531.838 866.067,527.51C861.826,523.182 855.205,521.018 846.203,521.018C838.932,521.018 832.138,522.014 825.819,524.004C819.501,525.995 813.832,528.202 808.811,530.626L798.425,499.985C805.003,497.042 812.966,494.403 822.314,492.066C831.662,489.729 841.616,488.56 852.175,488.56C863.947,488.56 874.247,490.637 883.075,494.792C891.904,498.947 898.828,505.092 903.849,513.228C908.869,521.364 911.379,531.405 911.379,543.349L911.379,595.542C911.379,599.177 911.509,602.423 911.768,605.279C912.028,608.136 912.504,611.468 913.196,615.276L915.274,628L877.363,628L874.247,611.122C869.919,617.008 864.25,621.811 857.239,625.533C850.228,629.255 842.568,631.116 834.258,631.116C826.988,631.116 820.323,629.471 814.264,626.182C808.205,622.893 803.315,618.349 799.593,612.55C795.871,606.751 794.01,599.956 794.01,592.166ZM829.065,587.752C829.065,592.253 830.537,595.758 833.479,598.268C836.422,600.778 840.144,602.034 844.645,602.034C849.665,602.034 854.599,600.952 859.446,598.788C864.293,596.624 868.621,593.638 872.429,589.829L872.429,568.796L860.225,569.316C852.435,569.662 846.29,570.744 841.789,572.562C837.288,574.379 834.042,576.586 832.051,579.183C830.061,581.78 829.065,584.636 829.065,587.752Z" style="fill-rule:nonzero;"/>
            </g>
            <g transform="matrix(1,0,0,1,-53,10)">
                <path d="M949.03,628L949.03,442.34L987.98,437.147L987.98,508.295C993.173,502.236 999.102,497.432 1005.767,493.883C1012.432,490.334 1019.919,488.56 1028.228,488.56C1036.364,488.56 1044.067,490.594 1051.338,494.662C1058.609,498.73 1064.538,504.789 1069.125,512.839C1073.713,520.888 1076.006,531.059 1076.006,543.349L1076.006,628L1037.057,628L1037.057,549.322C1037.057,540.666 1034.893,534.348 1030.565,530.366C1026.237,526.385 1020.698,524.394 1013.946,524.394C1009.619,524.394 1005.161,525.216 1000.574,526.861C995.986,528.505 991.788,530.972 987.98,534.261L987.98,628L949.03,628Z" style="fill-rule:nonzero;"/>
            </g>
            <g transform="matrix(1,0,0,1,-72,14)">
                <path d="M1098.078,521.538L1098.078,491.676L1121.448,491.676L1121.448,490.118C1121.448,479.732 1123.438,470.6 1127.42,462.723C1131.401,454.847 1137.157,448.745 1144.688,444.417C1152.218,440.089 1161.176,437.925 1171.563,437.925C1175.717,437.925 1180.348,438.358 1185.455,439.224C1190.562,440.089 1195.279,441.301 1199.607,442.859L1195.452,472.201C1192.682,471.336 1189.869,470.687 1187.013,470.254C1184.157,469.821 1181.43,469.605 1178.833,469.605C1172.428,469.605 1167.754,471.379 1164.812,474.928C1161.869,478.476 1160.397,483.367 1160.397,489.599L1160.397,491.676L1195.712,491.676L1195.712,521.538L1160.397,521.538L1160.397,628L1121.448,628L1121.448,521.538L1098.078,521.538Z" style="fill-rule:nonzero;"/>
            </g>
            <g transform="matrix(1,0,0,1,-74,0)">
                <path d="M1195.712,491.676L1238.297,491.676L1265.302,576.327L1291.788,491.676L1333.334,491.676L1280.362,628C1276.035,639.079 1271.404,648.427 1266.47,656.044C1261.537,663.661 1255.651,669.417 1248.813,673.311C1241.975,677.206 1233.45,679.154 1223.236,679.154C1219.601,679.154 1215.749,678.764 1211.681,677.985C1207.613,677.206 403.934,676.211 400.645,674.999L404.8,643.58C407.223,644.272 1209.56,644.835 1211.811,645.268C1214.061,645.7 1216.312,645.917 1218.562,645.917C1224.794,645.917 1229.987,644.272 1234.142,640.983C1238.297,637.694 1241.499,633.193 1243.75,627.481L1246.087,621.508L1195.712,491.676Z" style="fill-rule:nonzero;"/>
            </g>
        </g>
        <g transform="matrix(1,0,0,1,566.29219,-283.853231)">
            <g transform="matrix(100,0,0,100,1149.21224,942.809896)">
            </g>
            <text x="465.911px" y="942.81px" style="font-family:'Arial-BoldMT', 'Arial', sans-serif;font-weight:700;font-size:100px;">Community-UI</text>
        </g>
    </g>
</svg>
